# xmcd CD database file
#
# Track frame offsets:
#	150
#	17085
#	33030
#	55795
#	75135
#	96708
#	115043
#	131240
#	153485
#	168790
#	183625
#	204280
#	222205
#	245690
#	264582
#	283005
#	301450
#
# Disc length: 4260 seconds
#
# Revision: 0
# Processed by: cddbd v1.5.2PL0 Copyright (c) Steve Scherf et al.
# Submitted via: Feurio! 1.68 - http://www.feurio.com
#
DISCID=e610a211
DTITLE=Bee Gees - Greates Hits
DYEAR=1900
DGENRE=
TTITLE0=Jive Talkin´
TTITLE1=Night Fever
TTITLE2=Tragedy
TTITLE3=You Should Be Dancing
TTITLE4=Stayin´ Alive
TTITLE5=How Deep is Your Love
TTITLE6=Love So Right
TTITLE7=Too  Much Heaven
TTITLE8=Ig I Can´t Have you
TTITLE9=More Than a Woman
TTITLE10=Nights On Broadway
TTITLE11=Tokyo Nights
TTITLE12=Spritis (Having Flown)
TTITLE13=Love you inside out
TTITLE14=Ordinary Lives
TTITLE15=(Our Love) Don´t Throw In All Away
TTITLE16=You Win Again
EXTD=
EXTT0=
EXTT1=
EXTT2=
EXTT3=
EXTT4=
EXTT5=
EXTT6=
EXTT7=
EXTT8=
EXTT9=
EXTT10=
EXTT11=
EXTT12=
EXTT13=
EXTT14=
EXTT15=
EXTT16=
PLAYORDER=
